<svg width="500" height="500" viewBox="0 0 500 500" fill="none" xmlns="http://www.w3.org/2000/svg">
<g clip-path="url(#clip0_1_2)">
<rect x="3.05176e-05" y="500" width="500" height="500" rx="120" transform="rotate(-90 3.05176e-05 500)" fill="#121212"/>
<path d="M25 525C25 471.957 48.7053 421.086 90.901 383.579C133.097 346.071 190.326 325 250 325C309.674 325 366.903 346.071 409.099 383.579C451.295 421.086 475 471.957 475 525L441.25 525C441.25 479.913 421.1 436.673 385.234 404.792C349.368 372.911 300.723 355 250 355C199.277 355 150.632 372.911 114.766 404.792C78.8995 436.673 58.75 479.913 58.75 525H25Z" fill="white"/>
<path d="M25 -24.9999C25 28.0434 48.7053 78.9141 90.901 116.421C133.097 153.929 190.326 175 250 175C309.674 175 366.903 153.929 409.099 116.422C451.295 78.9143 475 28.0436 475 -24.9997L441.25 -24.9997C441.25 20.0871 421.1 63.3272 385.234 95.2083C349.368 127.089 300.723 145 250 145C199.277 145 150.632 127.089 114.766 95.2082C78.8995 63.327 58.75 20.0869 58.75 -24.9999H25Z" fill="white"/>
<path d="M324.5 363C354.337 363 382.952 351.147 404.049 330.05C425.147 308.952 437 280.337 437 250.5C437 220.663 425.147 192.048 404.05 170.951C382.952 149.853 354.337 138 324.5 138L324.5 166.125C346.878 166.125 368.339 175.015 384.162 190.838C399.986 206.661 408.875 228.122 408.875 250.5C408.875 272.878 399.986 294.339 384.162 310.162C368.339 325.986 346.878 334.875 324.5 334.875V363Z" fill="white"/>
<path d="M175.5 138C145.663 138 117.048 149.853 95.9505 170.951C74.8527 192.048 63 220.663 63 250.5C63 280.337 74.8526 308.952 95.9505 330.05C117.048 351.147 145.663 363 175.5 363L175.5 334.875C153.122 334.875 131.661 325.986 115.838 310.162C100.014 294.339 91.125 272.878 91.125 250.5C91.125 228.122 100.015 206.661 115.838 190.838C131.661 175.015 153.122 166.125 175.5 166.125V138Z" fill="white"/>
<path d="M325 342C325 322.109 317.098 303.032 303.033 288.967C288.968 274.902 269.891 267 250 267C230.109 267 211.032 274.902 196.967 288.967C182.902 303.032 175 322.109 175 342L250 342H325Z" fill="white"/>
<path d="M325 158C325 177.891 317.098 196.968 303.033 211.033C288.968 225.098 269.891 233 250 233C230.109 233 211.032 225.098 196.967 211.033C182.902 196.968 175 177.891 175 158L250 158L325 158Z" fill="white"/>
</g>
<defs>
<clipPath id="clip0_1_2">
<rect x="3.05176e-05" y="500" width="500" height="500" rx="120" transform="rotate(-90 3.05176e-05 500)" fill="white"/>
</clipPath>
</defs>
</svg>
